# xmcd
#
# Track frame offsets: 
#        150
#        16987
#        38267
#        53430
#        70697
#        86160
#        112307
#        128470
#        145347
#        168687
#        189650
#        208112
#        226945
#        258232
#        272755
#
# Disc length: 3983 seconds
#
# Revision: 1
# Processed by: cddbd v1.5.2PL0 Copyright (c) Steve Scherf et al.
# Submitted via: ExactAudioCopy v0.99pb4
#
DISCID=cd0f8d0f
DTITLE=Михаил Звездинский - Эх, Россия
DYEAR=2006
DGENRE=Шансон
TTITLE0=Эх, Россия!
TTITLE1=Дети Империи
TTITLE2=Прощальная звезда
TTITLE3=Мое Отечество
TTITLE4=Мы вернемся, Россия!
TTITLE5=На перепутье
TTITLE6=Жар-птица, Русь
TTITLE7=Теннис (посвящается Шамилю Тарпищеву)
TTITLE8=Таможня
TTITLE9=Честь и слава
TTITLE10=Пусть былое уходит
TTITLE11=Казаки
TTITLE12=Русские кони
TTITLE13=Икар
TTITLE14=Радио-новости
EXTD=
EXTT0=
EXTT1=
EXTT2=
EXTT3=
EXTT4=
EXTT5=
EXTT6=
EXTT7=
EXTT8=
EXTT9=
EXTT10=
EXTT11=
EXTT12=
EXTT13=
EXTT14=
PLAYORDER=
